<svg width="59" height="59" viewBox="0 0 59 59" fill="none" xmlns="http://www.w3.org/2000/svg">
<g clip-path="url(#clip0_1093_67787)">
<path fill-rule="evenodd" clip-rule="evenodd" d="M29.5002 13.8943C27.0163 13.8944 24.6092 14.7557 22.6892 16.3315C20.7691 17.9073 19.4549 20.1002 18.9703 22.5364C18.4858 24.9726 18.861 27.5014 20.032 29.692C21.2029 31.8826 23.0972 33.5994 25.3921 34.5499C27.6869 35.5004 30.2403 35.6258 32.6173 34.9047C34.9942 34.1836 37.0476 32.6607 38.4276 30.5953C39.8075 28.53 40.4287 26.0501 40.1852 23.5782C39.9417 21.1062 38.8486 18.7952 37.0922 17.0388C36.0962 16.0404 34.9128 15.2486 33.6099 14.709C32.307 14.1694 30.9104 13.8925 29.5002 13.8943ZM35.7885 18.3423C37.2435 19.7971 38.149 21.7113 38.3508 23.7589C38.5526 25.8064 38.0382 27.8606 36.8952 29.5714C35.7523 31.2822 34.0515 32.5438 32.0826 33.1411C30.1138 33.7385 27.9987 33.6347 26.0978 32.8475C24.1969 32.0602 22.6278 30.6382 21.6578 28.8237C20.6878 27.0093 20.377 24.9146 20.7783 22.8966C21.1796 20.8787 22.2681 19.0623 23.8585 17.7569C25.4489 16.4516 27.4427 15.7381 29.5002 15.738C30.6682 15.7364 31.8251 15.9657 32.9042 16.4126C33.9834 16.8595 34.9636 17.5153 35.7885 18.3423ZM13.0803 6.77452C17.4435 2.43557 23.3468 0 29.5002 0C35.6536 0 41.5568 2.43557 45.92 6.77452C50.284 11.1383 52.2579 16.5855 52.2579 22.1918C52.2579 28.1717 50.0003 34.3282 45.9956 39.5242L31.8944 57.8199C31.6136 58.1885 31.2514 58.4874 30.8361 58.6931C30.4208 58.8988 29.9637 59.0058 29.5002 59.0058C29.0368 59.0058 28.5796 58.8988 28.1643 58.6931C27.7491 58.4874 27.3869 58.1885 27.1061 57.8199L13.0045 39.5242C8.99997 34.3282 6.74219 28.1717 6.74219 22.1918C6.74219 16.5855 8.7165 11.1383 13.0803 6.77452Z" fill="#FC0005"/>
</g>
<defs>
<clipPath id="clip0_1093_67787">
<rect width="59" height="59" fill="white"/>
</clipPath>
</defs>
</svg>
